<?xml version="1.0" standalone="no"?><!DOCTYPE svg PUBLIC "-//W3C//DTD SVG 1.1//EN" "http://www.w3.org/Graphics/SVG/1.1/DTD/svg11.dtd"><svg class="icon" width="200px" height="200.00px" viewBox="0 0 1024 1024" version="1.1" xmlns="http://www.w3.org/2000/svg"><path d="M667.2 1024H364.8C203.2 1024 70.4 891.2 70.4 729.6l-4.8-414.4c0-60.8 49.6-110.4 110.4-110.4h670.4c60.8 0 110.4 49.6 110.4 110.4l6.4 414.4C961.6 891.2 828.8 1024 667.2 1024z" fill="#b6b6b6" /><path d="M377.6 795.2c-12.8 0-22.4 12.8-17.6 25.6C379.2 864 444.8 896 523.2 896s144-32 163.2-75.2c4.8-11.2-4.8-25.6-17.6-25.6H377.6z" fill="#212121" /><path d="M640 809.6v-3.2H404.8v8s1.6 20.8 11.2 20.8c4.8 0 8-6.4 9.6-12.8h196.8c1.6 6.4 4.8 12.8 9.6 12.8 6.4 0 9.6-14.4 9.6-19.2v-6.4z" fill="#ffffff" /><path d="M196.8 667.2m-14.4 0a14.4 14.4 0 1 0 28.8 0 14.4 14.4 0 1 0-28.8 0Z" fill="#f5f5f5" /><path d="M252.8 729.6m-14.4 0a14.4 14.4 0 1 0 28.8 0 14.4 14.4 0 1 0-28.8 0Z" fill="#f5f5f5" /><path d="M308.8 667.2m-14.4 0a14.4 14.4 0 1 0 28.8 0 14.4 14.4 0 1 0-28.8 0Z" fill="#f5f5f5" /><path d="M692.8 667.2m-14.4 0a14.4 14.4 0 1 0 28.8 0 14.4 14.4 0 1 0-28.8 0Z" fill="#f5f5f5" /><path d="M748.8 729.6m-14.4 0a14.4 14.4 0 1 0 28.8 0 14.4 14.4 0 1 0-28.8 0Z" fill="#f5f5f5" /><path d="M804.8 667.2m-14.4 0a14.4 14.4 0 1 0 28.8 0 14.4 14.4 0 1 0-28.8 0Z" fill="#f5f5f5" /><path d="M368 494.4c-32 0-57.6 36.8-57.6 81.6 0 6.4 4.8 12.8 12.8 12.8s12.8-4.8 12.8-12.8c0-32 16-57.6 33.6-57.6s33.6 27.2 33.6 57.6c0 6.4 4.8 12.8 12.8 12.8s12.8-4.8 12.8-12.8c-1.6-44.8-27.2-81.6-60.8-81.6zM665.6 494.4c-32 0-57.6 36.8-57.6 81.6 0 6.4 4.8 12.8 12.8 12.8s12.8-4.8 12.8-12.8c0-32 16-57.6 33.6-57.6s33.6 27.2 33.6 57.6c0 6.4 4.8 12.8 12.8 12.8s12.8-4.8 12.8-12.8c-3.2-44.8-27.2-81.6-60.8-81.6z" fill="#212121" /><path d="M166.4 137.6C57.6 137.6 0 228.8 0 420.8s196.8 152 196.8-36.8 108.8-172.8 108.8-172.8-30.4-73.6-139.2-73.6zM857.6 134.4c-108.8 0-140.8 75.2-140.8 75.2s108.8-17.6 108.8 172.8S1024 611.2 1024 419.2 966.4 134.4 857.6 134.4z" fill="#616161" /><path d="M608 670.4c0-8-6.4-14.4-16-17.6l-20.8-6.4c-40-11.2-83.2-11.2-121.6 0l-19.2 6.4c-9.6 3.2-16 9.6-16 17.6v28.8c0 6.4 6.4 11.2 14.4 11.2s14.4 4.8 14.4 11.2c0 11.2 11.2 20.8 25.6 20.8h83.2c14.4 0 25.6-9.6 25.6-20.8 0-6.4 6.4-11.2 14.4-11.2s14.4-4.8 14.4-11.2v-28.8z" fill="#616161" /></svg>