<svg xmlns="http://www.w3.org/2000/svg" viewBox="1031.623 1382.933 394.167 369.981">
  <defs>
    <style>
      .cls-1 {
        fill: #ffb900;
      }

      .cls-2 {
        fill: #ffc83d;
      }

      .cls-3 {
        fill: #e5e5e5;
      }

      .cls-4 {
        fill: #a6a6a6;
      }

      .cls-5 {
        fill: #ffd679;
      }

      .cls-6 {
        fill: #fff;
      }

      .cls-7 {
        fill: #eba300;
        opacity: 0.44;
      }

      .cls-12, .cls-20, .cls-8, .cls-9 {
        fill: none;
        stroke-miterlimit: 10;
      }

      .cls-8, .cls-9 {
        stroke: #0063b1;
      }

      .cls-8 {
        stroke-width: 8.139px;
      }

      .cls-20, .cls-9 {
        stroke-linejoin: round;
      }

      .cls-9 {
        stroke-width: 6.594px;
      }

      .cls-10 {
        fill: #0063b1;
      }

      .cls-11 {
        fill: #83beec;
      }

      .cls-12 {
        stroke: #3a96dd;
        stroke-width: 6.594px;
      }

      .cls-13 {
        fill: #3a96dd;
      }

      .cls-14 {
        fill: #0078d7;
      }

      .cls-15 {
        fill: #859599;
      }

      .cls-16 {
        fill: #69797e;
      }

      .cls-17 {
        fill: #f2f2f2;
      }

      .cls-18 {
        fill: #da3b01;
      }

      .cls-19 {
        fill: #a0aeb2;
      }

      .cls-20 {
        stroke: gray;
        stroke-linecap: round;
        stroke-width: 1.5px;
      }

      .cls-21 {
        fill: #757575;
      }

      .cls-22 {
        fill: #ccc;
      }
    </style>
  </defs>
  <g id="Group_92" data-name="Group 92" transform="translate(-2 1190.933)">
    <g id="moon_2_" transform="translate(1137.167 336.297)">
      <path id="Path_2" data-name="Path 2" class="cls-1" d="M362.645,311.483a112.774,112.774,0,1,1-37.107-105.347A112.895,112.895,0,0,1,362.645,311.483Z" transform="translate(-138.77 -178.546)"/>
      <path id="Path_3" data-name="Path 3" class="cls-2" d="M336.787,279.006a112.851,112.851,0,0,1-184.936,65.179A112.855,112.855,0,0,1,325.513,206.136,112.259,112.259,0,0,1,336.787,279.006Z" transform="translate(-138.744 -178.546)"/>
      <g id="Group_35" data-name="Group 35" transform="translate(30.434 39.898)">
        <path id="Path_4" data-name="Path 4" class="cls-3" d="M208.022,248.97a14.356,14.356,0,0,1-25.683,5.973,15.534,15.534,0,0,1-1.643-2.837,14.616,14.616,0,0,1-.971-8.213A14.35,14.35,0,0,1,196.45,232.32a13.787,13.787,0,0,1,6.943,3.36,13.493,13.493,0,0,1,3.061,3.808A14.047,14.047,0,0,1,208.022,248.97Z" transform="translate(-179.507 -232.011)"/>
        <path id="Path_5" data-name="Path 5" class="cls-4" d="M206.7,245.734a15.081,15.081,0,0,1-24.265,9.109,9.725,9.725,0,0,1-.747-1.12c-.3-.523-.6-1.12-.9-1.717a14.616,14.616,0,0,1-.971-8.213A14.35,14.35,0,0,1,196.55,232.22a13.787,13.787,0,0,1,6.943,3.36c.149.149.373.3.523.448a12.457,12.457,0,0,1,2.538,3.36A16.44,16.44,0,0,1,206.7,245.734Z" transform="translate(-179.532 -231.985)"/>
        <path id="Path_6" data-name="Path 6" class="cls-5" d="M207,246.159a15.081,15.081,0,0,1-24.265,9.109,9.73,9.73,0,0,1-.747-1.12,14.417,14.417,0,0,1-.971-8.362,14.663,14.663,0,0,1,17.172-11.871,15.226,15.226,0,0,1,6.048,2.613,12.459,12.459,0,0,1,2.538,3.36A14.694,14.694,0,0,1,207,246.159Z" transform="translate(-179.832 -232.41)"/>
      </g>
      <g id="Group_36" data-name="Group 36" transform="translate(30.969 73.913)">
        <path id="Path_7" data-name="Path 7" class="cls-3" d="M196.333,287.168a8.161,8.161,0,0,1-14.559,3.434,7.026,7.026,0,0,1-.9-1.643,8.143,8.143,0,0,1,8.959-11.2,9.252,9.252,0,0,1,3.957,1.867,8.022,8.022,0,0,1,2.538,7.541Z" transform="translate(-180.224 -277.569)"/>
        <path id="Path_8" data-name="Path 8" class="cls-4" d="M195.586,285.351a8.5,8.5,0,0,1-9.93,6.869,9.346,9.346,0,0,1-3.808-1.717l-.448-.672a4.021,4.021,0,0,1-.523-.971,8.143,8.143,0,0,1,8.959-11.2,9.251,9.251,0,0,1,3.957,1.867c.075.075.224.149.3.3a6.869,6.869,0,0,1,1.419,1.867A10.048,10.048,0,0,1,195.586,285.351Z" transform="translate(-180.224 -277.544)"/>
        <path id="Path_9" data-name="Path 9" class="cls-5" d="M195.764,285.572a8.5,8.5,0,0,1-9.93,6.869,9.347,9.347,0,0,1-3.808-1.717l-.448-.672a8.509,8.509,0,0,1-.523-4.778,8.325,8.325,0,0,1,9.706-6.72,7.924,7.924,0,0,1,3.434,1.493,6.87,6.87,0,0,1,1.419,1.867A8.655,8.655,0,0,1,195.764,285.572Z" transform="translate(-180.401 -277.765)"/>
      </g>
      <g id="Group_37" data-name="Group 37" transform="translate(91.884 12.942)">
        <path id="Path_10" data-name="Path 10" class="cls-3" d="M307.521,223.1a23.012,23.012,0,0,1-41.138,9.557,22.962,22.962,0,0,1-4.106-17.769,23.018,23.018,0,0,1,37.853-13.14,21.711,21.711,0,0,1,4.928,6.122A22.524,22.524,0,0,1,307.521,223.1Z" transform="translate(-261.838 -195.906)"/>
        <path id="Path_11" data-name="Path 11" class="cls-4" d="M305.331,217.995a24.332,24.332,0,0,1-28.147,19.561,24,24,0,0,1-10.826-4.928c-.448-.6-.821-1.195-1.269-1.867-.523-.9-.971-1.792-1.419-2.762a23.246,23.246,0,0,1-1.493-13.215,23.018,23.018,0,0,1,37.853-13.14c.3.224.523.523.821.747a22.321,22.321,0,0,1,4.106,5.376A22.464,22.464,0,0,1,305.331,217.995Z" transform="translate(-261.812 -195.881)"/>
        <path id="Path_12" data-name="Path 12" class="cls-5" d="M305.8,218.657a24.332,24.332,0,0,1-28.147,19.561,24,24,0,0,1-10.826-4.928c-.448-.6-.821-1.195-1.269-1.867a23.378,23.378,0,0,1-1.493-13.439,23.7,23.7,0,0,1,27.475-19.113,22.767,22.767,0,0,1,9.706,4.181,22.322,22.322,0,0,1,4.106,5.376A21.473,21.473,0,0,1,305.8,218.657Z" transform="translate(-262.282 -196.543)"/>
      </g>
      <g id="Group_38" data-name="Group 38" transform="translate(143.53 70.506)">
        <path id="Path_13" data-name="Path 13" class="cls-3" d="M358.77,289.5a13.944,13.944,0,0,1-16.276,11.274,14.229,14.229,0,0,1-8.81-5.45,11.393,11.393,0,0,1-1.568-2.762,14.04,14.04,0,0,1,15.38-19.337,14.02,14.02,0,0,1,9.706,7.018A13.567,13.567,0,0,1,358.77,289.5Z" transform="translate(-330.986 -272.982)"/>
        <path id="Path_14" data-name="Path 14" class="cls-4" d="M357.426,286.434a14.772,14.772,0,0,1-23.742,8.885,9.731,9.731,0,0,1-.747-1.12,16.847,16.847,0,0,1-.821-1.643,14.04,14.04,0,0,1,15.38-19.337,13.268,13.268,0,0,1,6.72,3.285,3.247,3.247,0,0,0,.523.448,15.46,15.46,0,0,1,2.538,3.285A15.643,15.643,0,0,1,357.426,286.434Z" transform="translate(-330.986 -272.982)"/>
        <path id="Path_15" data-name="Path 15" class="cls-5" d="M357.705,286.816a14.772,14.772,0,0,1-23.742,8.885,9.734,9.734,0,0,1-.747-1.12,14.467,14.467,0,0,1,15.828-19.86,13.17,13.17,0,0,1,5.9,2.538,15.461,15.461,0,0,1,2.538,3.285A14.74,14.74,0,0,1,357.705,286.816Z" transform="translate(-331.265 -273.363)"/>
      </g>
      <g id="Group_39" data-name="Group 39" transform="translate(160.834 60.118)">
        <path id="Path_16" data-name="Path 16" class="cls-3" d="M366.136,266.185a6.025,6.025,0,0,1-7.018,4.853,6.243,6.243,0,0,1-3.808-2.389,3.786,3.786,0,0,1-.672-1.195,5.942,5.942,0,0,1-.373-3.434,6.025,6.025,0,0,1,7.018-4.853,5.934,5.934,0,0,1,2.912,1.419,4.63,4.63,0,0,1,1.269,1.643A5.925,5.925,0,0,1,366.136,266.185Z" transform="translate(-354.162 -259.067)"/>
        <path id="Path_17" data-name="Path 17" class="cls-4" d="M365.539,264.841a6.413,6.413,0,0,1-7.391,5.152,7.529,7.529,0,0,1-2.837-1.269,1.2,1.2,0,0,1-.3-.523,2.335,2.335,0,0,1-.373-.747,5.942,5.942,0,0,1-.373-3.434,6.025,6.025,0,0,1,7.018-4.853,5.934,5.934,0,0,1,2.912,1.419l.224.224a6.688,6.688,0,0,1,1.12,1.419A7.672,7.672,0,0,1,365.539,264.841Z" transform="translate(-354.162 -259.067)"/>
        <path id="Path_18" data-name="Path 18" class="cls-5" d="M365.666,265.019a6.413,6.413,0,0,1-7.391,5.152,7.528,7.528,0,0,1-2.837-1.269,1.2,1.2,0,0,1-.3-.523,6.226,6.226,0,0,1,6.869-8.511,5.223,5.223,0,0,1,2.538,1.12,6.693,6.693,0,0,1,1.12,1.419A7.675,7.675,0,0,1,365.666,265.019Z" transform="translate(-354.289 -259.246)"/>
      </g>
      <g id="Group_40" data-name="Group 40" transform="translate(177.558 62.806)">
        <path id="Path_19" data-name="Path 19" class="cls-3" d="M388.536,269.785a6.025,6.025,0,0,1-7.018,4.853,6.243,6.243,0,0,1-3.808-2.389,3.786,3.786,0,0,1-.672-1.195,5.942,5.942,0,0,1-.373-3.434,6.025,6.025,0,0,1,7.018-4.853,5.934,5.934,0,0,1,2.912,1.419,4.629,4.629,0,0,1,1.269,1.643A5.519,5.519,0,0,1,388.536,269.785Z" transform="translate(-376.562 -262.667)"/>
        <path id="Path_20" data-name="Path 20" class="cls-4" d="M387.939,268.441a6.413,6.413,0,0,1-7.391,5.152,7.529,7.529,0,0,1-2.837-1.269,1.2,1.2,0,0,1-.3-.523,2.336,2.336,0,0,1-.373-.747,5.942,5.942,0,0,1-.373-3.434,6.025,6.025,0,0,1,7.018-4.853,5.934,5.934,0,0,1,2.912,1.419l.224.224a6.689,6.689,0,0,1,1.12,1.419A6.156,6.156,0,0,1,387.939,268.441Z" transform="translate(-376.562 -262.667)"/>
        <path id="Path_21" data-name="Path 21" class="cls-5" d="M388.066,268.619a6.413,6.413,0,0,1-7.391,5.152,7.529,7.529,0,0,1-2.837-1.269,1.2,1.2,0,0,1-.3-.523,6.226,6.226,0,0,1,6.869-8.511,5.224,5.224,0,0,1,2.538,1.12,6.691,6.691,0,0,1,1.12,1.419A6.157,6.157,0,0,1,388.066,268.619Z" transform="translate(-376.689 -262.846)"/>
      </g>
      <g id="Group_41" data-name="Group 41" transform="translate(173.377 136.272)">
        <path id="Path_22" data-name="Path 22" class="cls-3" d="M382.936,368.185a6.025,6.025,0,0,1-7.018,4.853,6.243,6.243,0,0,1-3.808-2.389,3.786,3.786,0,0,1-.672-1.195,5.941,5.941,0,0,1-.373-3.434,6.025,6.025,0,0,1,7.018-4.853,5.934,5.934,0,0,1,2.912,1.419,4.63,4.63,0,0,1,1.269,1.643A5.519,5.519,0,0,1,382.936,368.185Z" transform="translate(-370.962 -361.067)"/>
        <path id="Path_23" data-name="Path 23" class="cls-4" d="M382.439,366.841a6.413,6.413,0,0,1-7.391,5.152,7.53,7.53,0,0,1-2.837-1.269,1.2,1.2,0,0,1-.3-.523,2.335,2.335,0,0,1-.373-.747,5.942,5.942,0,0,1-.373-3.434,6.025,6.025,0,0,1,7.018-4.853,5.934,5.934,0,0,1,2.912,1.419l.224.224a6.691,6.691,0,0,1,1.12,1.419A10.188,10.188,0,0,1,382.439,366.841Z" transform="translate(-370.988 -361.067)"/>
        <path id="Path_24" data-name="Path 24" class="cls-5" d="M382.566,367.019a6.413,6.413,0,0,1-7.391,5.152,7.53,7.53,0,0,1-2.837-1.269,1.2,1.2,0,0,1-.3-.523,6.226,6.226,0,0,1,6.869-8.511,5.223,5.223,0,0,1,2.538,1.12,6.69,6.69,0,0,1,1.12,1.419A10.188,10.188,0,0,1,382.566,367.019Z" transform="translate(-371.114 -361.246)"/>
      </g>
      <g id="Group_42" data-name="Group 42" transform="translate(86.098 140.528)">
        <path id="Path_25" data-name="Path 25" class="cls-3" d="M266.036,373.885a6.025,6.025,0,0,1-7.018,4.853,6.243,6.243,0,0,1-3.808-2.389,3.785,3.785,0,0,1-.672-1.195,5.942,5.942,0,0,1-.373-3.434,6.025,6.025,0,0,1,7.018-4.853,5.934,5.934,0,0,1,2.912,1.419,4.63,4.63,0,0,1,1.269,1.643A5.452,5.452,0,0,1,266.036,373.885Z" transform="translate(-254.062 -366.767)"/>
        <path id="Path_26" data-name="Path 26" class="cls-4" d="M265.539,372.541a6.413,6.413,0,0,1-7.391,5.152,7.529,7.529,0,0,1-2.837-1.269,1.2,1.2,0,0,1-.3-.523,2.336,2.336,0,0,1-.373-.747,5.942,5.942,0,0,1-.373-3.434,6.025,6.025,0,0,1,7.018-4.853,5.934,5.934,0,0,1,2.912,1.419l.224.224a6.689,6.689,0,0,1,1.12,1.419A10.162,10.162,0,0,1,265.539,372.541Z" transform="translate(-254.087 -366.767)"/>
        <path id="Path_27" data-name="Path 27" class="cls-5" d="M265.666,372.719a6.413,6.413,0,0,1-7.391,5.152,7.53,7.53,0,0,1-2.837-1.269,1.2,1.2,0,0,1-.3-.523,6.226,6.226,0,0,1,6.869-8.511,5.222,5.222,0,0,1,2.538,1.12,6.688,6.688,0,0,1,1.12,1.419A10.162,10.162,0,0,1,265.666,372.719Z" transform="translate(-254.214 -366.946)"/>
      </g>
      <g id="Group_43" data-name="Group 43" transform="translate(10.69 102.6)">
        <path id="Path_28" data-name="Path 28" class="cls-3" d="M165.036,323.085a6.025,6.025,0,0,1-7.018,4.853,6.243,6.243,0,0,1-3.808-2.389,3.786,3.786,0,0,1-.672-1.195,5.941,5.941,0,0,1-.373-3.434,6.025,6.025,0,0,1,7.018-4.853,5.934,5.934,0,0,1,2.912,1.419,4.63,4.63,0,0,1,1.269,1.643A5.846,5.846,0,0,1,165.036,323.085Z" transform="translate(-153.062 -315.967)"/>
        <path id="Path_29" data-name="Path 29" class="cls-4" d="M164.439,321.741a6.413,6.413,0,0,1-7.391,5.152,7.529,7.529,0,0,1-2.837-1.269,1.2,1.2,0,0,1-.3-.523,2.335,2.335,0,0,1-.373-.747,5.941,5.941,0,0,1-.373-3.434,6.025,6.025,0,0,1,7.018-4.853,5.934,5.934,0,0,1,2.912,1.419l.224.224a6.691,6.691,0,0,1,1.12,1.419A7.647,7.647,0,0,1,164.439,321.741Z" transform="translate(-153.062 -315.967)"/>
        <path id="Path_30" data-name="Path 30" class="cls-5" d="M164.566,321.919a6.413,6.413,0,0,1-7.391,5.152,7.53,7.53,0,0,1-2.837-1.269,1.2,1.2,0,0,1-.3-.523,6.226,6.226,0,0,1,6.869-8.511,5.223,5.223,0,0,1,2.538,1.12,6.692,6.692,0,0,1,1.12,1.419A7.648,7.648,0,0,1,164.566,321.919Z" transform="translate(-153.189 -316.146)"/>
      </g>
      <g id="Group_44" data-name="Group 44" transform="translate(31.883 132.243)">
        <path id="Path_31" data-name="Path 31" class="cls-3" d="M220.236,378.788a19.551,19.551,0,0,1-22.7,15.753,19.328,19.328,0,0,1-12.244-7.615,20.153,20.153,0,0,1-2.24-3.882,18.959,18.959,0,0,1-1.269-11.2,19.551,19.551,0,0,1,22.7-15.754,18.878,18.878,0,0,1,9.407,4.554,17.7,17.7,0,0,1,4.181,5.226A19.053,19.053,0,0,1,220.236,378.788Z" transform="translate(-181.448 -355.697)"/>
        <path id="Path_32" data-name="Path 32" class="cls-4" d="M218.369,374.433a20.57,20.57,0,0,1-23.892,16.575,19.935,19.935,0,0,1-9.183-4.181c-.373-.523-.747-1.045-1.045-1.568a22.493,22.493,0,0,1-1.195-2.315,18.959,18.959,0,0,1-1.269-11.2,19.551,19.551,0,0,1,22.7-15.754,18.878,18.878,0,0,1,9.407,4.554l.672.672a20.614,20.614,0,0,1,3.509,4.554A19.849,19.849,0,0,1,218.369,374.433Z" transform="translate(-181.448 -355.671)"/>
        <path id="Path_33" data-name="Path 33" class="cls-5" d="M218.775,374.985a20.57,20.57,0,0,1-23.892,16.575,19.935,19.935,0,0,1-9.183-4.181c-.373-.523-.747-1.045-1.045-1.568a19.7,19.7,0,0,1-1.269-11.423,20.132,20.132,0,0,1,23.369-16.2,20.655,20.655,0,0,1,8.287,3.509,20.614,20.614,0,0,1,3.509,4.554A21.468,21.468,0,0,1,218.775,374.985Z" transform="translate(-181.853 -356.224)"/>
      </g>
      <g id="Group_45" data-name="Group 45" transform="translate(67.852 116.91)">
        <path id="Path_34" data-name="Path 34" class="cls-3" d="M253.374,349.22a11.954,11.954,0,0,1-21.353,5,15.051,15.051,0,0,1-1.344-2.389,11.949,11.949,0,1,1,22.7-2.613Z" transform="translate(-229.65 -335.135)"/>
        <path id="Path_35" data-name="Path 35" class="cls-4" d="M252.228,346.607a12.669,12.669,0,0,1-14.634,10.154,12.051,12.051,0,0,1-5.6-2.538,10.92,10.92,0,0,1-.672-.971,8.513,8.513,0,0,1-.747-1.419A11.979,11.979,0,0,1,249.466,338.1c.149.149.3.224.448.373a15.349,15.349,0,0,1,2.165,2.762A11.834,11.834,0,0,1,252.228,346.607Z" transform="translate(-229.624 -335.135)"/>
        <path id="Path_36" data-name="Path 36" class="cls-5" d="M252.482,346.963a12.669,12.669,0,0,1-14.634,10.154,12.052,12.052,0,0,1-5.6-2.539,10.916,10.916,0,0,1-.672-.971,12.136,12.136,0,0,1-.747-6.943,12.332,12.332,0,0,1,14.26-9.93,13.424,13.424,0,0,1,5.077,2.165,15.349,15.349,0,0,1,2.165,2.762A11.477,11.477,0,0,1,252.482,346.963Z" transform="translate(-229.878 -335.491)"/>
      </g>
      <g id="Group_46" data-name="Group 46" transform="translate(104.085 144.672)">
        <path id="Path_37" data-name="Path 37" class="cls-3" d="M321.244,397.839a21.622,21.622,0,0,1-38.675,8.959,22.411,22.411,0,0,1-2.464-4.33,21.6,21.6,0,0,1,23.742-29.79,22.4,22.4,0,0,1,10.453,5,21.494,21.494,0,0,1,4.629,5.749A22.6,22.6,0,0,1,321.244,397.839Z" transform="translate(-278.204 -372.318)"/>
        <path id="Path_38" data-name="Path 38" class="cls-4" d="M319.1,393.186a22.8,22.8,0,0,1-26.5,18.367,21.883,21.883,0,0,1-10.154-4.629,14.047,14.047,0,0,1-1.195-1.717,20.843,20.843,0,0,1-1.344-2.538,21.6,21.6,0,0,1,23.742-29.79,22.4,22.4,0,0,1,10.453,5,6.724,6.724,0,0,1,.747.672,21.333,21.333,0,0,1,3.882,5.077A21.546,21.546,0,0,1,319.1,393.186Z" transform="translate(-278.154 -372.369)"/>
        <path id="Path_39" data-name="Path 39" class="cls-5" d="M319.547,393.8a22.8,22.8,0,0,1-26.5,18.367,21.883,21.883,0,0,1-10.154-4.629,14.059,14.059,0,0,1-1.195-1.717,21.9,21.9,0,0,1-1.419-12.618,22.218,22.218,0,0,1,25.833-17.919,22.968,22.968,0,0,1,9.183,3.882,21.332,21.332,0,0,1,3.882,5.077A21.546,21.546,0,0,1,319.547,393.8Z" transform="translate(-278.599 -372.979)"/>
      </g>
    </g>
    <path id="Path_58" data-name="Path 58" class="cls-1" d="M29.454,338.569l-11.2-2.613L13.7,344.99l-1.269-12.618L2.8,329.759l10.378-4.032L14.3,315.2l5.9,9.183,9.855-2.986-7.391,8.437Z" transform="translate(1032.87 123.124)"/>
    <path id="Path_59" data-name="Path 59" class="cls-1" d="M112.681,242.447l-3.36-6.645L102.9,237.3l5.749-5.9-2.762-5.824,6.346,3.434,5.674-3.808-2.016,6.719,5.525,3.658-7.242-.149Z" transform="translate(1007.506 145.929)"/>
    <path id="Path_60" data-name="Path 60" class="cls-1" d="M518.65,52.88l-4.7,8.213,6.122,5.674-10.3-1.941-4.256,6.943-.747-9.109L496.7,59.3l8.586-2.464V48.4l4.853,7.765Z" transform="translate(907.721 190.728)"/>
    <path id="Path_61" data-name="Path 61" class="cls-1" d="M295.988,4.7l-.224,7.839,6.719,1.792L294.2,16.87l-.448,6.794-4.106-6.346-7.242.672,5.376-5.226-3.285-6.122,6.57,3.733Z" transform="translate(962.022 201.801)"/>
    <path id="Path_62" data-name="Path 62" class="cls-1" d="M490.61,286.431l-6.346-7.914-8.063,4.629,5.973-10.453-5.226-7.093,9.333,2.314,6.5-7.615-.9,10.229,8.437,2.912-9.631,2.613Z" transform="translate(912.916 137.035)"/>
    <path id="Path_63" data-name="Path 63" class="cls-1" d="M400.565,131.779l-7.391,2.837.9,6.943-5.674-6.794-6.5,2.24,4.405-6.272-3.434-6.5,6.943,2.912,4.48-5.45-.971,7.69Z" transform="translate(936.81 172.155)"/>
    <path id="Path_64" data-name="Path 64" class="cls-1" d="M107.3,448.886l-6.346,2.464.747,5.9L96.925,451.5,91.4,453.366l3.733-5.376-2.912-5.525,5.9,2.538,3.808-4.7-.821,6.57Z" transform="translate(1010.42 91.425)"/>
    <rect id="Rectangle_40" data-name="Rectangle 40" class="cls-6" width="8.959" height="8.959" transform="translate(1039.958 325.684) rotate(45)"/>
    <rect id="Rectangle_41" data-name="Rectangle 41" class="cls-6" width="8.959" height="8.959" transform="translate(1121.185 219.653) rotate(45)"/>
    <rect id="Rectangle_42" data-name="Rectangle 42" class="cls-6" width="8.959" height="8.959" transform="translate(1149.366 337.611) rotate(45)"/>
    <rect id="Rectangle_43" data-name="Rectangle 43" class="cls-6" width="8.959" height="8.959" transform="translate(1078.993 473.874) rotate(45)"/>
    <rect id="Rectangle_44" data-name="Rectangle 44" class="cls-6" width="8.959" height="8.959" transform="translate(1385.861 522.75) rotate(45)"/>
    <rect id="Rectangle_45" data-name="Rectangle 45" class="cls-6" width="8.959" height="8.959" transform="translate(1328.368 236.978) rotate(45)"/>
    <rect id="Rectangle_46" data-name="Rectangle 46" class="cls-6" width="8.959" height="8.959" transform="translate(1399.655 314.233) rotate(45)"/>
    <g id="Group_90" data-name="Group 90" transform="translate(1138.451 192)">
      <path id="Path_40" data-name="Path 40" class="cls-7" d="M6,43a6.185,6.185,0,0,1-4.388-1.843,5.963,5.963,0,0,1,.263-8.425C24.7,11.32,52.778,0,83.141,0a5.918,5.918,0,0,1,5.967,5.967,5.918,5.918,0,0,1-5.967,5.967c-27.292,0-52.565,10.18-73.1,29.486A5.857,5.857,0,0,1,6,43Z" transform="matrix(0.998, -0.07, 0.07, 0.998, 20.072, 165.069)"/>
      <path id="Path_41" data-name="Path 41" class="cls-8" d="M251.986,180.1l-44.755-27.2L201,204.588" transform="translate(-175.375 -18.722)"/>
      <path id="Path_42" data-name="Path 42" class="cls-9" d="M242.539,118.882,207.7,141l24.045-41.6" transform="translate(-176.196 -12.171)"/>
      <g id="Group_47" data-name="Group 47" transform="translate(61.078 98.198)">
        <circle id="Ellipse_2" data-name="Ellipse 2" class="cls-10" cx="8.6" cy="8.6" r="8.6"/>
      </g>
      <path id="Path_43" data-name="Path 43" class="cls-11" d="M302.533,170.571c-7.02,11.145-38.174,16.059-48.265,7.635-2.194-13.865-8.425-52.829-10.267-64.764,7.02-11.145,38.174-16.059,48.266-7.635C294.547,120.287,300.6,158.636,302.533,170.571Z" transform="translate(-180.641 -12.435)"/>
      <path id="Path_44" data-name="Path 44" class="cls-12" d="M293.329,179.973,232.251,171.9,227.6,220.078" transform="translate(-178.632 -21.048)"/>
      <path id="Path_45" data-name="Path 45" class="cls-12" d="M289.678,114.2l-9.565,38.261L241.5,162.729" transform="translate(-180.334 -13.983)"/>
      <g id="Group_48" data-name="Group 48" transform="translate(100.743 91.617)">
        <circle id="Ellipse_3" data-name="Ellipse 3" class="cls-10" cx="8.6" cy="8.6" r="8.6"/>
        <circle id="Ellipse_4" data-name="Ellipse 4" class="cls-13" cx="3.861" cy="3.861" r="3.861" transform="translate(4.739 4.739)"/>
      </g>
      <g id="Group_49" data-name="Group 49" transform="translate(102.937 147.341)">
        <circle id="Ellipse_5" data-name="Ellipse 5" class="cls-10" cx="11.584" cy="11.584" r="11.584"/>
        <circle id="Ellipse_6" data-name="Ellipse 6" class="cls-13" cx="5.265" cy="5.265" r="5.265" transform="translate(6.318 6.318)"/>
      </g>
      <g id="Group_50" data-name="Group 50" transform="translate(92.67 131.458)">
        <circle id="Ellipse_7" data-name="Ellipse 7" class="cls-10" cx="6.406" cy="6.406" r="6.406"/>
        <circle id="Ellipse_8" data-name="Ellipse 8" class="cls-13" cx="2.896" cy="2.896" r="2.896" transform="translate(3.51 3.51)"/>
      </g>
      <path id="Path_46" data-name="Path 46" class="cls-10" d="M196.986,213.4l2.9,14.216-28.082.79Z" transform="translate(-171.8 -26.13)"/>
      <path id="Path_47" data-name="Path 47" class="cls-13" d="M224.839,224.8l4.651,13.865-30.89,5.265Z" transform="translate(-175.082 -27.526)"/>
      <g id="Group_51" data-name="Group 51" transform="translate(42.562 192.623)">
        <circle id="Ellipse_9" data-name="Ellipse 9" class="cls-10" cx="6.406" cy="6.406" r="6.406"/>
        <circle id="Ellipse_10" data-name="Ellipse 10" class="cls-13" cx="2.896" cy="2.896" r="2.896" transform="translate(3.51 3.51)"/>
      </g>
      <g id="Group_52" data-name="Group 52" transform="translate(19.218 179.46)">
        <circle id="Ellipse_11" data-name="Ellipse 11" class="cls-10" cx="6.406" cy="6.406" r="6.406"/>
        <circle id="Ellipse_12" data-name="Ellipse 12" class="cls-14" cx="2.896" cy="2.896" r="2.896" transform="translate(3.51 3.51)"/>
      </g>
      <g id="Group_53" data-name="Group 53" transform="translate(75.6 78.495)">
        <path id="Path_48" data-name="Path 48" class="cls-15" d="M274.579,102.569l-10.618,3.247a2.536,2.536,0,0,1-3.159-1.667l-2.808-9.127a1.15,1.15,0,0,1,.7-1.4l13.339-4.125a1.15,1.15,0,0,1,1.4.7l2.808,9.127A2.668,2.668,0,0,1,274.579,102.569Z" transform="translate(-257.948 -89.448)"/>
        <rect id="Rectangle_30" data-name="Rectangle 30" class="cls-16" width="16.235" height="0.702" transform="translate(0.483 7.168) rotate(-17.007)"/>
        <rect id="Rectangle_31" data-name="Rectangle 31" class="cls-16" width="16.235" height="0.702" transform="translate(1.268 9.808) rotate(-17.007)"/>
        <rect id="Rectangle_32" data-name="Rectangle 32" class="cls-16" width="16.235" height="0.702" transform="translate(2.137 12.422) rotate(-17.007)"/>
      </g>
      <path id="Path_49" data-name="Path 49" class="cls-17" d="M259.869,147.545h-.088l-8.6,1.4a.791.791,0,0,1-.439-.088c-.088-.088-.176-.263-.263-.351l-2.282-14.3a.6.6,0,0,1,.439-.7l8.6-1.4a.791.791,0,0,1,.439.088c.088.088.176.263.263.351l2.282,14.3A.555.555,0,0,1,259.869,147.545Zm-8.249.176,7.459-1.141-2.106-13.163-7.459,1.141Z" transform="translate(-181.152 -16.175)"/>
      <circle id="Ellipse_13" data-name="Ellipse 13" class="cls-18" cx="1.755" cy="1.755" r="1.755" transform="translate(80.033 115.662)"/>
      <circle id="Ellipse_14" data-name="Ellipse 14" class="cls-2" cx="1.755" cy="1.755" r="1.755" transform="translate(80.911 121.366)"/>
      <circle id="Ellipse_15" data-name="Ellipse 15" class="cls-18" cx="1.755" cy="1.755" r="1.755" transform="translate(81.788 127.07)"/>
      <g id="Group_54" data-name="Group 54" transform="translate(37.823 141.911)">
        <path id="Path_50" data-name="Path 50" class="cls-19" d="M231.6,164l6.757,1.843,3.686,5.441-5.967,5.792Z" transform="translate(-216.945 -161.992)"/>
        <path id="Path_51" data-name="Path 51" class="cls-19" d="M230.433,164.334l-7.371-2.545a1.282,1.282,0,0,0-1.667.878h0a1.39,1.39,0,0,0,.878,1.667l6.845,2.282Z" transform="translate(-215.69 -161.712)"/>
        <path id="Path_52" data-name="Path 52" class="cls-15" d="M234.031,177.076l-9.565,1.492-.527.088-6.406.79-2.633-7.986,6.231-3.422.439-.176L229.555,164Z" transform="translate(-214.9 -161.992)"/>
        <path id="Path_53" data-name="Path 53" class="cls-16" d="M225.335,179.106l-2.9-10.706-.439.175,2.808,10.618Z" transform="translate(-215.769 -162.531)"/>
      </g>
      <g id="Group_55" data-name="Group 55" transform="translate(56.866 144.27)">
        <circle id="Ellipse_16" data-name="Ellipse 16" class="cls-10" cx="4.212" cy="4.212" r="4.212"/>
        <circle id="Ellipse_17" data-name="Ellipse 17" class="cls-13" cx="1.931" cy="1.931" r="1.931" transform="translate(2.282 2.282)"/>
      </g>
      <g id="Group_57" data-name="Group 57" transform="translate(39.227 61.166)">
        <path id="Path_54" data-name="Path 54" class="cls-15" d="M229.088,92.262l-4.914-9.829a1.8,1.8,0,0,1,.878-2.457h0a1.767,1.767,0,0,1,2.369.878l5.441,11.32Z" transform="translate(-217.417 -70.937)"/>
        <path id="Path_55" data-name="Path 55" class="cls-19" d="M216.5,70.4l2.9-.7,6.231,15.269v.088l.351.263,7.371,6.494-2.457,4.037-10.18-6.933-.527-.351v-.176Z" transform="translate(-216.5 -69.7)"/>
        <g id="Group_56" data-name="Group 56" transform="translate(13.163 20.974)">
          <circle id="Ellipse_18" data-name="Ellipse 18" class="cls-10" cx="3.861" cy="3.861" r="3.861"/>
          <circle id="Ellipse_19" data-name="Ellipse 19" class="cls-14" cx="1.755" cy="1.755" r="1.755" transform="translate(2.106 2.106)"/>
        </g>
      </g>
      <g id="head_2_" transform="translate(24.923)">
        <path id="Path_56" data-name="Path 56" class="cls-20" d="M224.635,32.572l-8.863-13.514L205.943,22.3l11.5-11.584-11.32,3.422,2.369-5.09L204.1,3.7" transform="translate(-200.678 -0.453)"/>
        <circle id="Ellipse_20" data-name="Ellipse 20" class="cls-18" cx="3.861" cy="3.861" r="3.861"/>
        <path id="Path_57" data-name="Path 57" class="cls-11" d="M278.125,69.72c-1.843,11.32-25.8,28.7-37.121,26.853-6.757-9.3-25.625-35.453-31.5-43.439,1.843-11.32,25.8-28.7,37.121-26.853C253.729,35.934,272.333,61.647,278.125,69.72Z" transform="translate(-201.339 -3.201)"/>
        <rect id="Rectangle_33" data-name="Rectangle 33" class="cls-3" width="28.169" height="3.686" transform="matrix(0.81, -0.586, 0.586, 0.81, 28.708, 78.173)"/>
        <rect id="Rectangle_34" data-name="Rectangle 34" class="cls-21" width="0.965" height="3.686" transform="matrix(0.81, -0.586, 0.586, 0.81, 30.776, 76.65)"/>
        <rect id="Rectangle_35" data-name="Rectangle 35" class="cls-21" width="0.965" height="3.686" transform="matrix(0.81, -0.586, 0.586, 0.81, 34.846, 73.762)"/>
        <rect id="Rectangle_36" data-name="Rectangle 36" class="cls-21" width="0.965" height="3.686" transform="matrix(0.81, -0.586, 0.586, 0.81, 38.935, 70.751)"/>
        <rect id="Rectangle_37" data-name="Rectangle 37" class="cls-21" width="0.965" height="3.686" transform="matrix(0.81, -0.586, 0.586, 0.81, 43.005, 67.862)"/>
        <rect id="Rectangle_38" data-name="Rectangle 38" class="cls-21" width="0.965" height="3.686" transform="matrix(0.81, -0.586, 0.586, 0.81, 47.023, 64.902)"/>
        <circle id="Ellipse_21" data-name="Ellipse 21" cx="3.861" cy="3.861" r="3.861" transform="translate(20.535 60.551)"/>
        <circle id="Ellipse_22" data-name="Ellipse 22" cx="4.125" cy="4.125" r="4.125" transform="translate(33.61 50.108)"/>
        <rect id="Rectangle_39" data-name="Rectangle 39" class="cls-21" width="15.094" height="0.527" transform="matrix(0.81, -0.586, 0.586, 0.81, 54.467, 61.458)"/>
        <circle id="Ellipse_23" data-name="Ellipse 23" class="cls-21" cx="3.686" cy="3.686" r="3.686" transform="translate(50.723 58.445)"/>
        <circle id="Ellipse_24" data-name="Ellipse 24" class="cls-22" cx="1.667" cy="1.667" r="1.667" transform="translate(52.741 60.464)"/>
      </g>
      <g id="Group_58" data-name="Group 58" transform="translate(26.414 129.264)">
        <circle id="Ellipse_25" data-name="Ellipse 25" class="cls-10" cx="6.318" cy="6.318" r="6.318"/>
        <circle id="Ellipse_26" data-name="Ellipse 26" class="cls-14" cx="2.896" cy="2.896" r="2.896" transform="translate(3.422 3.422)"/>
      </g>
      <g id="Group_59" data-name="Group 59" transform="translate(25.361 121.366)">
        <circle id="Ellipse_27" data-name="Ellipse 27" class="cls-10" cx="6.231" cy="6.231" r="6.231"/>
        <circle id="Ellipse_28" data-name="Ellipse 28" class="cls-14" cx="2.808" cy="2.808" r="2.808" transform="translate(3.422 3.422)"/>
      </g>
    </g>
  </g>
</svg>
