<svg xmlns="http://www.w3.org/2000/svg" viewBox="0 0 636 300"><defs></defs><title>swimlane-dotnet-core</title><path fill="#b2b2b2" d="M553.03,257.782H86.079a4.091,4.091,0,0,1-3.98-4,4,4,0,0,1,3.98-4H553.03a3.919,3.919,0,0,1,3.98,4,4,4,0,0,1-3.98,4Z"/><path fill="#b89e7c" d="M489,253.782h48.14a7.317,7.317,0,0,0,7.106-6.43l3.483-33.14a5.682,5.682,0,0,0-5.754-6.43h-48.14a7.317,7.317,0,0,0-7.106,6.43l-3.483,33.14A5.682,5.682,0,0,0,489,253.782Z"/><path fill="#8e562e" d="M492,253.782h48.14a7.317,7.317,0,0,0,7.106-6.43l3.483-33.14a5.682,5.682,0,0,0-5.754-6.43h-48.14a7.317,7.317,0,0,0-7.106,6.43l-3.483,33.14A5.682,5.682,0,0,0,492,253.782Z"/><path fill="#b89e7c" d="M529.954,207.782c.017.332.036.663.036,1,0,7.72-4.486,14-10,14s-10-6.28-10-14c0-.337.019-.668.036-1h-2c-.016.333-.038.663-.038,1,0,8.822,5.383,16,12,16s12-7.178,12-16c0-.337-.023-.667-.038-1Z"/><path fill="#f6cba7" d="M199.038,127.928c-2.546.573-5.6,1.087-8.3,1.5l-3.4,20.237,16.129-.336Z"/><path fill="#ddb694" d="M199.651,130.888l-.613-2.96c-2.546.573-5.6,1.087-8.3,1.5l-.766,4.561Z"/><polygon fill="#6d6e71" points="416.317 184.782 495.306 185.255 504.509 253.782 501.347 253.782 492.618 188.782 460.598 188.436 469.373 253.782 466.022 253.782 457.293 188.782 418.829 188.366 406.236 253.782 403.032 253.782 416.317 184.782"/><path fill="#3d1a68" d="M469.689,99.5c8.144-.313,21.886,0,27.56,0s8.444.475,8.319,5.7c-.321,13.3-2.528,59.806-3.219,70.485-.367,5.673-4.238,9.968-13.154,10.1h-79.6a10.608,10.608,0,0,1,10.084-9h26.1c0,.559,12.63-57.344,14.339-65.417C461.926,102.821,464.343,99.7,469.689,99.5Z"/><path fill="#8e562e" fill-rule="evenodd" d="M490.188,98.945c-18.668,5.764-31.2-19.045-31.2-19.045V63.863l24.038-.752.256,1.754C483.284,83.91,483.284,92.43,490.188,98.945Z"/><path fill-rule="evenodd" d="M407.99,254.782v-11H396.148a15.666,15.666,0,0,0-14.742,11Z"/><path fill-rule="evenodd" fill="#d0b28d" d="M396.28,242.782c-6.774,0-11.283,3.2-14.46,8h18.43a8.892,8.892,0,0,0,8.735-8Z"/><path fill-rule="evenodd" fill="#666" d="M430.99,162.782v-1H414.453c-10.476,1.066-18.908,11.681-19.462,21.79h0v1.011c.3,49.975.411,57.84.43,58.813a.118.118,0,0,0,.122.12c3.745-.021,11.555,0,12.551,0a.117.117,0,0,0,.115-.117c4.058-50.073,4.2-61.659,4.2-62.931a.123.123,0,0,1,.124-.125c11.146,0,29.269.25,29.269.25,10.94,0,19.592-7.07,19.666-17.86,0-.075-.062-.139-.136.048Z"/><path fill-rule="evenodd" fill="#666" d="M449.99,163.782v-1H435.469c-10.476.959-18.908,11.7-19.479,21.939h0V243.7c6.1.045,13.49.045,13.49.045,3.284-41.777,3.857-56.511,3.941-61.214a2,2,0,0,1,2.022-1.974c6.6.058,27.151.238,27.365.238,10.987,0,19.675-6.305,19.675-17.01Z"/><path fill-rule="evenodd" d="M429.99,254.782v-11H418.284a15.793,15.793,0,0,0-14.877,11Z"/><path fill-rule="evenodd" fill="#d0b28d" d="M417.129,242.782a17.413,17.413,0,0,0-14.824,8h18.941a9.1,9.1,0,0,0,9.059-8Z"/><path fill-rule="evenodd" fill="#d0b28d" d="M472.99,93.744V78.782h-14.5l-.25,14.75a1.88,1.88,0,0,1-1.75,1.25h-4.5v32h29v-32h-6.963A1.041,1.041,0,0,1,472.99,93.744Z"/><path fill="#b89e7c" fill-rule="evenodd" d="M472.99,87.335V77.782H458.12l-.256,15.126C470.426,92.908,472.99,87.335,472.99,87.335Z"/><path fill="#b89e7c" fill-rule="evenodd" d="M456.091,94.309c0,.253-.236.253-.236.473H452.99v23.79c-.208.253.265.505.028,1.21h.236c0,.053.236.053.735-.2v-.506C453.255,110.989,456.091,94.309,456.091,94.309Z"/><path fill-rule="evenodd" fill="#ff8c00" d="M438.556,162.782s18.386,21.744,44.434,21.744V162.782Z"/><path fill-rule="evenodd" fill="#ff8c00" d="M480.775,94.782h-6.692c-5.4,9.346-11.84,18.39-20.333,24.453-1.544-7.578-.772-16.117.772-24.453h-1.287c-9.523,0-17.245,8.286-17.245,17.38v11.62h3v40h44v-40h14v-12.63C496.733,102.563,489.526,94.782,480.775,94.782Z"/><path fill-rule="evenodd" fill="#f0ae00" d="M439.99,124.075v39.707H458.9Z"/><path fill-rule="evenodd" fill="#d0b28d" d="M496.99,122.782h-14v8.454a1.666,1.666,0,0,1-1.3,1.53c-5.409,1.833-27.974,8.386-27.974,8.386-18.926,0-19.73,10.485-19.73,10.485,9.481-.152,20.936-3.092,20.936-3.092,13.608-.84,35.324-3.793,35.324-3.793a7.808,7.808,0,0,0,6.741-7.905Z"/><polygon fill="#b89e7c" fill-rule="evenodd" points="496.99 126.563 496.99 122.782 483.754 122.782 496.99 126.563"/><ellipse fill="#d0b28d" cx="451.758" cy="70.674" rx="5.2" ry="4.727"/><circle fill="#e81123" cx="447.976" cy="73.983" r="1.418"/><ellipse fill="#d9c1a4" cx="479.174" cy="70.674" rx="5.2" ry="4.727"/><circle fill="#e81123" cx="482.956" cy="73.983" r="1.418"/><path fill-rule="evenodd" fill="#d0b28d" d="M480.592,57.813a18.744,18.744,0,0,0-14.778-6.743c-13.249,0-21.147,14.235-15.8,25.972a21.706,21.706,0,0,0,6.37,9.24,11.484,11.484,0,0,0,3.567,2.5c4.331,1.748,8.153.5,11.72-1.5a55.826,55.826,0,0,0,4.586-3.5,9.162,9.162,0,0,0,3.567-7.242Z"/><path fill-rule="evenodd" fill="#d9c1a4" d="M452.467,63.32a30.1,30.1,0,0,1,4.491-10.609c-5.672,3.031-8.509,9.346-8.509,16.671,0,6.567,1.418,11.114,6.381,16.418C451.521,79.486,451.049,69.887,452.467,63.32Z"/><path fill="#8e562e" fill-rule="evenodd" d="M465.848,45.148c-9.937,0-18.09,8.751-18.345,19.888,2.293,1.061,3.312,1.591,5.86,1.591,8.153,0,15.033-5.834,17.58-14.054,1.784,5.3,3.822,11.137,10.192,13.789.764.53,1.529-1.856,2.293-1.591C482.919,53.9,476.04,45.148,465.848,45.148Z"/><path fill-rule="evenodd" fill="#d9c1a4" d="M461.99,76.782V69.219c-.709,0-1.182.709-1.418,1.418l-.473,6.145Z"/><path fill="#b89e7c" fill-rule="evenodd" d="M459.794,76.782a3.189,3.189,0,0,0,2.836,1.891,2.955,2.955,0,0,0,2.836-1.891Z"/><path fill-rule="evenodd" fill="#ee4d5a" d="M463.616,79.183a1.078,1.078,0,0,0-.987,1.018c-.247-.509-.74-1.018-.987-1.018a11.172,11.172,0,0,0-4.686,1.018c.74,3.309,2.959,5.6,5.672,5.6s4.933-2.291,5.672-5.6A11.172,11.172,0,0,0,463.616,79.183Z"/><path fill="#b89e7c" fill-rule="evenodd" d="M456.957,80.782a6.145,6.145,0,0,0,11.345,0Z"/><path fill-rule="evenodd" fill="#fff" d="M456.957,80.782c.74,1.654,2.959,2.836,5.672,2.836s4.933-1.182,5.672-2.836Z"/><circle cx="455.539" cy="69.256" r="1.418"/><circle cx="469.72" cy="69.256" r="1.418"/><path fill-rule="evenodd" fill="#939393" d="M454.874,107.782H404.589a1.2,1.2,0,0,0-1.289,1.548l6.189,38.452H462.61l-6.189-38.968A1.414,1.414,0,0,0,454.874,107.782Z"/><path fill-rule="evenodd" fill="#666" d="M462.99,150.782h15.584a.481.481,0,0,0,.416-.473v-1.418a.481.481,0,0,0-.416-.473l-15.584-.473Z"/><path fill-rule="evenodd" fill="#394453" d="M461.99,149.782H410.276a1.2,1.2,0,0,1-1.286-1.25v-1.75h53Z"/><polygon fill="#6597bf" points="322.99 244.719 322.99 235.958 309.145 238.662 305.9 248.613 322.99 244.719"/><path fill="#3d1a68" d="M160.21,101.81c-7.843-.3-21.079,0-26.544,0s-8.133.457-8.012,5.486c.309,12.811,2.435,57.6,3.1,67.886.353,5.464,4.082,9.6,12.669,9.6H218.09s-1.124-8-9.712-8h-25.14s-12.164-55.768-13.81-63.543C167.686,105.01,165.358,102.008,160.21,101.81Z"/><path fill="#a996f0" d="M186.547,130.033a128.8,128.8,0,0,0,14.908-2.717c-1.821-9.59-4.97-25.269-5.423-27.167-2.551-10.68-13.721-3.921-12.434,2.869C184.347,106.973,185.574,119.7,186.547,130.033Z"/><polygon fill="#6d6e71" points="223.88 184.782 134.286 185.248 123.848 252.782 127.484 252.782 137.376 188.782 173.66 188.441 163.716 252.782 167.514 252.782 177.406 188.782 220.994 188.373 235.264 252.782 238.947 252.782 223.88 184.782"/><polygon fill="#bcbec0" points="209.023 241.489 209.911 232.927 223.167 236.972 225.33 247.026 209.023 241.489"/><path fill="#414042" d="M208.782,240.716a69.874,69.874,0,0,0,8.442,2.051c2.537.263,3.7-5.687,8.078-2.688s3.9,4.526,14.144,9.907c3.546,1.864-1.106,4.48-1.106,4.48l-30.761-3.189Z"/><polygon fill="#bcbec0" points="192.99 244.043 192.99 235.435 206.593 238.092 209.781 247.869 192.99 244.043"/><path fill="#6d6e71" d="M211.122,163.782h9.565c4.889,0,14.914,1.664,13.923,13.947-1.456,18.034-9.005,60.933-9.005,60.933l-16.757-2.576s5.357-50.836,3.656-52.324-13.284-2.976-13.284-2.976l2.019-17Z"/><path fill="#3d1a68" d="M129.447,175.947c.921-10.537,5.835-56.421,7.594-69.545.69-5.152,3.912-5.62,10.355-5.62h9.594s-.643,56.61-.643,64.97c0,7.227,3.366,10.287,8.433,10.984a9.781,9.781,0,0,0,1.911.046s43.87.142,53.974.142,10.1,8.858,10.1,8.858H137.921C130.831,185.782,128.958,181.545,129.447,175.947Z"/><path fill="#f6cba7" d="M167.406,88.682c-7.637-.533-11.544-8.7-11.544-8.7a40.634,40.634,0,0,1-3.2-15.273L153.731,53.7l14.031-6.926L182.68,57.6l.178,7.1a39.948,39.948,0,0,1-3.2,15.273s-4.262,9.057-12.255,8.7Z"/><path fill="#f6cba7" d="M153.51,65.192a1.7,1.7,0,0,0-1.648-.888s-1.648.178-1.1,2.841l.366,1.243.366,1.421.549,1.243.366.888a7.135,7.135,0,0,1,.366,1.6,1.117,1.117,0,0,0,.915,1.243h1.1a78.917,78.917,0,0,1,.183-8.88Z"/><path fill="#8867c8" d="M138.893,93.893c4.887-.975,24.332-4.973,24.332-4.973l9.01.225c2.311.558,4.271.954,19.529,5.206a7.008,7.008,0,0,1,4.494,6.468c.178,3.907-7.293,61.962-7.293,61.962l-48.975-.675-.082-38.734-1.044-22.268S134.006,94.868,138.893,93.893Z"/><path fill="#f6cba7" d="M167.49,96.324c-4.7,0-8.5-2.43-8.5-6.379V84.782h17v5.164c0,3.949-3.8,6.379-8.5,6.379Z"/><path fill="#737373" d="M181.99,56.987v7.795h-1V60.623c-6.657,3.729-16.07-8.026-23.529-3.408.533,7.636-2.842,8.568-2.842,8.568h-1.457l-.172-8.795v-.359c.172-7.718,6.178-11.846,13.385-11.846h2.4c7.207,0,13.041,4.128,13.213,11.846v.359Z"/><path fill="#c09f81" d="M173.792,74.782c0,.533-.355.888-1.066.888-.178,0-.178.355-.533.533a1.918,1.918,0,0,1-1.243.533,1.612,1.612,0,0,1-1.243-.533c-.355-.178-.533-.533-.71-.533a.839.839,0,0,1-.888-.888h5.683Z"/><path fill="#ddb694" d="M170.99,67.371v7.411h-2.882a.7.7,0,0,1,.355-.307,14.828,14.828,0,0,0,1.527-2.486V68.614c-.461-.888.6-1.243.96-1.243Z"/><path fill="#ddb694" d="M175.99,87.079l-.181.181c-2.351,1.989-5.606,2.713-9.585,2.351-3.074-.181-7.234-2.4-7.234-2.4V84.728a14.7,14.7,0,0,0,7.234,3.074c4.16.362,7.415-.723,9.766-2.894Z"/><path fill="#fff" d="M177.166,79.625a27.791,27.791,0,0,1-12.7,0s2.868,3.019,6.349,3.019S177.166,79.625,177.166,79.625Z"/><path fill="#f6cba7" d="M144.515,140.017l16.921,1.438,8.071-4.155s6.89.774,8.773,1.449a69.963,69.963,0,0,1,7.1,3.834s1.106,3.15-5.533,2c-1.688-.292-2.075,1.255-3.671,1.727s-2.989,1.508-7.628,2.307a32.773,32.773,0,0,1-10.351-.4l-15.289-1.05Z"/><path fill="#6d6e71" d="M139.99,161.457v6.148c0,3.18-1.06,10.177,10.813,10.177h34.558l7.208,60h17.385l-4.028-74.841Z"/><path fill="#414042" d="M193.1,243.154a69.874,69.874,0,0,0,8.608,1.169c2.551,0,4.424-5.848,7.758-3.507s4.35,4.1,15.091,8.4c3.72,1.488-.638,4.57-.638,4.57H192.99Z"/><path fill="#235a89" d="M377.99,161.159v6.261c0,3.238,1.079,10.362-11.01,10.362H331.792l-7.792,64H306.3l4.554-79.112Z"/><path fill="#5c2d91" d="M98.99,152.782v101h4.159s8.317-72.989,9.565-79.643,4.159-9.357,13.516-9.357H502.07c9.366,0,12.28,2.706,13.529,9.366s9.844,79.634,9.844,79.634h3.548l-.27-101Z"/><rect fill="#8867c8" x="78.99" y="148.782" width="468" height="6"/><path d="M305.454,148.782l-48.954.084c-1.189,0-4.31-2.281-4.31-2.281L246.3,104.935a1.828,1.828,0,0,1,1.851-2.153h52.012a2.562,2.562,0,0,1,2.456,2.153L308.561,147C308.728,148.193,306.643,148.782,305.454,148.782Z"/><path fill="#c8c8c8" d="M304.629,144.782H255.572a1.46,1.46,0,0,1-1.4-1.217L248.893,106a1.041,1.041,0,0,1,1.058-1.217H299a1.474,1.474,0,0,1,1.414,1.229l5.278,37.554A1.041,1.041,0,0,1,304.629,144.782Z"/><polygon fill="#eaeaea" points="303.169 141.782 256.283 141.782 251.364 106.782 298.251 106.782 303.169 141.782"/><polygon fill="#106ebe" points="298.426 115.782 253.665 115.782 252.371 106.782 297.131 106.782 298.426 115.782"/><path fill="#8c562f" d="M340.39,76.421l1.365,12.492L326.4,94.9l-1.863-17.048C327.489,74.191,339,72.176,340.39,76.421Z"/><path fill="#8e562e" fill-rule="evenodd" d="M333.646,42.34c-7.842-.742-17.113,2.021-18.67,5.06s-1.285,22.531,2.992,30.1,16.229,4.1,21.392,3.321c6.939-1.042,8.787-7.665,9.711-13.365s.623-14.005-1.783-17.651S340.6,43,333.646,42.34Z"/><path fill-rule="evenodd" d="M349.071,67.454c.924-5.7.623-14.005-1.783-17.651S340.6,43,333.646,42.34c-7.842-.742-17.113,2.021-18.67,5.06-.454.886-.752,3.179-.84,6.161a11.023,11.023,0,0,1,4.069.752c2.735,1.208,2.988,3.22,4.552,5.664s3.428,2.253,3.428,2.253l-.354-2.773s6.082-.984,6.813,3.607c.588,3.692-3.445,4.818-3.445,4.818s.5,2.759,1.042,7.567c.3,2.607,4.358,5.379,8.644,5.45.158-.026.329-.057.476-.079C346.3,79.778,348.147,73.154,349.071,67.454Z"/><polygon fill="#6597bf" points="291.99 244.719 291.99 235.958 278.145 238.662 274.9 248.613 291.99 244.719"/><path fill="#414042" d="M291.884,244.126a70.06,70.06,0,0,1-8.631,1.172c-2.557,0-4.262-3.516-4.262-3.516h-3.516s-4.362,4.11-15.131,8.418c-3.73,1.492.639,4.582.639,4.582H291.99Z"/><path fill="#235a89" d="M304.92,164.782h-9.714c-4.965,0-10.81,1.146-12.3,13.272-2.051,16.642-7.524,63.728-7.524,63.728h17.7s8.711-55.723,10.438-57.2,32.015-2.949,32.015-2.949l-2.051-16.853Z"/><path fill="#451e7c" d="M377,132.446a5.95,5.95,0,0,0-7.665-4.187c-.177-.038-.177-.038-.392.1,0,0-33,9.944-33.742,10.125l2.99,9.946c.529-.088,34.781-7.919,34.781-7.919C376.358,139.394,377.9,135.97,377,132.446Z"/><path fill="#025b56" d="M377,132.446a5.95,5.95,0,0,0-7.665-4.187c-.177-.038-.177-.038-.392.1,0,0-33,9.944-33.742,10.125l2.99,9.946c.529-.088,34.781-7.919,34.781-7.919C376.358,139.394,377.9,135.97,377,132.446Z"/><path fill="#394453" d="M317.99,147.287a1.5,1.5,0,0,1-1.5,1.5h-63.33c-1.077,0-1.741-.96-1.967-2.07l-.169-.93H317.99Z"/><path fill="#414042" d="M323.884,244.126a70.06,70.06,0,0,1-8.631,1.172c-2.557,0-4.262-3.516-4.262-3.516h-3.516s-4.362,4.11-15.131,8.418c-3.73,1.492.639,4.582.639,4.582H323.99Z"/><path fill="#99bcd7" d="M344.869,87.088c-7.745-1.369-22.976,1.479-22.976,1.479s3.366-5.125,11.571-5.813S342.779,84.542,344.869,87.088Z"/><path fill="#45779e" d="M304.813,99.744a7.952,7.952,0,0,1,4.574-6.983c6.945-2.912,17.361-5.5,19.714-6.273a41.2,41.2,0,0,1,12.377-.5s17.741,3.875,20.061,4.759a7.124,7.124,0,0,1,4.585,4.2s9.249,27.822,10.876,33.1l-45.435,46.708-17.473-4.928S304.632,103.736,304.813,99.744Z"/><polygon fill="#6d6e71" points="297.791 184.782 376.781 185.255 385.984 254.782 383.146 254.782 374.687 188.782 342.102 188.782 350.955 253.782 347.58 253.782 339.14 188.782 300.631 188.782 287.387 253.782 284.507 253.782 297.791 184.782"/><path fill="#3d1a68" d="M338.365,98.943c8.1-.313,21.886,0,27.56,0s8.511.475,9.119,5.7c1.549,13.3,5.877,59.806,6.687,70.485.431,5.673-2.837,9.968-11.754,10.658h-79.6c0-.69,0-9,8.916-9h26.1s4.492-57.9,5.066-65.973C331.07,102.265,333.049,99.148,338.365,98.943Z"/><path fill="#666" d="M228.2,146.782l6.208-44.176a1.548,1.548,0,0,0-1.568-1.824h-25.57a2.17,2.17,0,0,0-2.08,1.824l-6.209,44.176Z"/><path fill="#999" d="M207.289,103.61a2.175,2.175,0,0,1,2.085-1.828h25.169l-1.538-1H207.124a2.17,2.17,0,0,0-2.08,1.824l-6.209,44.176h2.387Z"/><path fill="#231f20" d="M165.99,145.782h62a0,0,0,0,1,0,0v1.434a1.566,1.566,0,0,1-1.566,1.566H168.015a2.025,2.025,0,0,1-2.025-2.025v-.975A0,0,0,0,1,165.99,145.782Z"/><path fill="#505050" d="M160.149,64.782s6.394-1.243,7.637,0Z"/><path fill="#505050" d="M179.685,64.782s-6.394-1.243-7.637,0Z"/><path fill="#505050" d="M164.056,67.9a.858.858,0,0,1,0-1.243,1.074,1.074,0,0,1,1.421,0,.858.858,0,0,1,0,1.243c-.533.533-1.066.533-1.421,0Z"/><path fill="#505050" d="M175.068,68.081a1.08,1.08,0,0,1,0-1.421.858.858,0,0,1,1.243,0,.831.831,0,0,1,0,1.421.858.858,0,0,1-1.243,0Z"/><polygon fill="#c8c8c8" points="294.078 140.782 300.845 140.782 297.543 117.782 290.676 117.782 294.078 140.782"/><polygon fill="#c8c8c8" points="291.93 140.782 288.692 117.782 264.788 117.782 268.191 140.782 291.93 140.782"/><polygon fill="#c8c8c8" points="262.815 117.782 255.201 117.782 258.503 140.782 266.052 140.782 262.815 117.782"/><path fill="#8e562e" d="M289.866,140.394l-6.7.5-7.481-4.057a66.9,66.9,0,0,0-8.252,1.181,65.6,65.6,0,0,0-6.734,3.451s-1.1,2.93,5.146,1.986c1.588-.24,1.92,1.218,3.406,1.693a32.269,32.269,0,0,0,7.1,2.316,37.666,37.666,0,0,0,10.172.037l4.871-.4Z"/><path fill="#6597bf" d="M317.675,109.786c.448-11.425-11.442-21.658-13.164-10.392-.457,2.988-5.845,34.486-5.845,34.486l-16.375,6.592,1.545,9.115c-.48.134,16.148-1.979,21.292-4.056,3.138-1.267,6.573-5.224,6.962-8.566C312.331,134.891,317.4,116.928,317.675,109.786Z"/><path fill="#a996f0" d="M133.033,98.691l.014,0a7.175,7.175,0,0,1,6.2-4.8c3.907-.355,7.329,7.493,5.946,15.872-1.527,4.432-7.043,20.336-8.464,25.131-3.931-2.414-15.548-5.9-15.548-5.9C122.781,123.673,131.612,102.954,133.033,98.691Z"/><path fill="#f6cba7" d="M133.345,138.91l1.7-4.9a112.805,112.805,0,0,0-12.18-4.486c-.8,1.987-2.185,5.471-3.229,8.209-1.549,4.066-.6,10.689,7.566,11.158,9.165.527,30.991-.674,30.991-.674l3.238-6.762Z"/><path fill="#ddb694" d="M134.095,136.754l.955-2.745a112.805,112.805,0,0,0-12.18-4.486c-.228.569-.508,1.269-.811,2.031Z"/><path fill-rule="evenodd" fill="#ff8c00" d="M217.99,136.532a1.681,1.681,0,0,1,1.529-1.75h2.471v7h-2.471a1.681,1.681,0,0,1-1.529-1.75Zm-2,.964v2.562a3.562,3.562,0,0,0,3.319,3.724h2.681v3.31a.629.629,0,0,0,.638.69h.362v1h13v-1h.844c.261.12.651-.147.156-.546V130.448c.5-.266-.156-.666-.156-.666H222.628a.731.731,0,0,0-.638.714v3.286h-2.681A3.6,3.6,0,0,0,215.99,137.5Z"/><path fill="#c9ad74" d="M512.99,147.144a1.75,1.75,0,0,0-.855.638h-8.709c-.2-.323-.41-.425-.436-.638v-.52c.026-.2.231-.418.436.158h8.709c.214-.576.419-.363.855-.158Z"/><path fill="#c9ad74" d="M516.368,142.782H499.5a.513.513,0,0,1-.513-.513v-6.856a.633.633,0,0,1,.631-.631h16.745a.626.626,0,0,1,.624.624v6.754A.624.624,0,0,1,516.368,142.782Z"/><path fill="#c9ad74" d="M516.494,141.831c0,3.019-3.94,5.526-8.812,5.526s-8.709-2.508-8.709-5.526c0-3.13,3.829-5.629,8.709-5.629S516.494,138.7,516.494,141.831Z"/><path fill="#c9ad74" d="M514.623,144.227l-.513-1.458c1.863-.734,3.94-1.569,4.248-1.774.2-.1.316-.1.521-.2.829-.316,1.966-.836,1.453-3.027a1.14,1.14,0,0,0-.624-.938c-1.034-.52-3.008.315-3.53.733l-.829-1.458c.316-.111,3.009-1.569,4.983-.733a2.706,2.706,0,0,1,1.555,2.081c.829,3.445-1.453,4.384-2.385,4.8a.361.361,0,0,0-.214.1A46.639,46.639,0,0,1,514.623,144.227Z"/><path fill="#c9ad74" d="M521.264,146.782c0,1.151-6.12,2.089-13.684,2.089-7.47,0-13.59-.938-13.59-2.089Z"/><path fill="#997a45" d="M509.443,142.035a2.834,2.834,0,0,1-3.316.734s.616-2.712,2.171-3.855a6.993,6.993,0,0,0-2.795,3.642,2.437,2.437,0,0,1,.2-3.335c1.034-1.458,2.8-1.978,3.838-1.143C510.682,138.914,510.58,140.577,509.443,142.035Z"/></svg>